<?xml version="1.0" standalone="no"?>
<!DOCTYPE svg PUBLIC "-//W3C//DTD SVG 20010904//EN"
 "http://www.w3.org/TR/2001/REC-SVG-20010904/DTD/svg10.dtd">
<svg version="1.0" xmlns="http://www.w3.org/2000/svg"
 width="875.000000pt" height="724.000000pt" viewBox="0 0 875.000000 724.000000"
 preserveAspectRatio="xMidYMid meet">

<g transform="translate(0.000000,724.000000) scale(0.100000,-0.100000)"
fill="#000000" stroke="none">
<path d="M5090 5750 c-108 -4 -240 -12 -295 -18 -55 -6 -147 -16 -205 -22
-531 -55 -1054 -202 -1485 -417 -147 -74 -479 -265 -489 -282 -3 -4 50 -6 117
-3 121 4 122 4 157 37 214 198 998 467 1437 492 125 7 693 -16 693 -28 0 -4
-52 -40 -116 -81 -128 -81 -270 -178 -449 -308 -154 -111 -272 -182 -360 -217
l-70 -27 -680 -1 c-455 -1 -721 -5 -805 -13 -648 -64 -1152 -183 -1492 -353
-131 -66 -217 -119 -314 -195 -85 -66 -164 -148 -164 -169 0 -13 71 -37 219
-75 109 -28 331 -42 571 -38 l192 3 21 27 c33 40 208 153 327 210 380 183 773
305 1230 382 377 64 631 86 988 86 l264 0 107 108 c216 220 372 344 595 471
95 54 304 139 421 172 185 52 443 69 720 50 183 -13 359 -51 582 -126 101 -34
263 -110 263 -124 -1 -9 -76 -64 -155 -112 -117 -71 -323 -165 -465 -213 -706
-236 -1001 -292 -1660 -315 -1190 -43 -1364 -58 -1870 -170 -396 -88 -929
-296 -1130 -442 -24 -18 -39 -34 -33 -36 16 -6 332 83 418 117 68 27 137 47
425 124 167 44 410 99 416 93 2 -2 -24 -23 -58 -47 -70 -48 -128 -95 -233
-185 -155 -134 -306 -221 -433 -251 -95 -22 -539 -15 -659 11 l-82 18 -208
-210 c-114 -115 -258 -261 -318 -325 -90 -95 -122 -122 -174 -147 -95 -45
-135 -48 -212 -17 -35 14 -65 24 -67 22 -7 -8 46 -83 77 -108 45 -39 173 -84
394 -139 444 -112 896 -161 1489 -163 185 -1 340 2 344 7 4 4 -9 41 -29 82
-21 41 -52 116 -70 167 -31 91 -32 97 -32 258 1 139 4 178 23 250 46 171 165
369 288 478 65 58 206 131 306 159 45 12 102 17 198 17 129 0 139 -1 223 -33
114 -43 222 -116 303 -205 49 -54 82 -106 143 -225 44 -86 86 -164 93 -173 12
-15 24 -10 134 60 66 42 154 101 195 130 163 118 407 267 648 396 525 283 834
411 1149 476 123 26 351 55 360 46 1 -2 -55 -20 -125 -40 -404 -117 -760 -257
-1103 -434 -113 -58 -243 -124 -290 -147 -120 -60 -339 -182 -445 -249 -49
-31 -107 -66 -128 -79 -21 -12 -75 -46 -120 -76 -45 -30 -119 -76 -164 -103
-45 -26 -85 -52 -88 -58 -20 -32 206 76 780 373 209 108 450 228 535 267 85
39 178 82 205 95 312 154 777 294 1084 325 127 12 351 13 451 0 112 -14 247
-49 315 -81 188 -88 377 -342 375 -504 -1 -25 -5 -20 -27 35 -22 53 -44 82
-117 156 -118 118 -237 182 -408 220 -97 22 -493 25 -623 5 -267 -40 -622
-132 -845 -220 -406 -160 -492 -200 -1315 -613 -590 -296 -790 -381 -1230
-523 -214 -69 -355 -101 -355 -81 0 24 27 47 72 62 29 9 74 27 100 40 26 13
82 38 125 55 87 34 175 73 439 195 100 46 193 84 208 84 33 0 34 22 6 137 -23
97 -69 194 -133 278 -151 201 -401 260 -635 148 -85 -41 -229 -188 -271 -276
-91 -191 -109 -368 -57 -563 23 -89 42 -130 99 -217 43 -67 54 -78 73 -73 12
3 105 24 206 47 100 22 253 63 338 91 171 55 484 175 570 218 30 15 109 51
175 80 66 29 194 87 285 130 570 269 807 373 1090 478 750 279 1315 340 1755
190 171 -58 277 -121 388 -227 37 -35 70 -62 73 -58 4 3 29 79 56 169 l50 163
5 215 6 216 -33 33 c-89 89 -352 230 -470 252 -134 25 -132 24 -70 43 52 16
326 67 437 81 61 8 68 15 77 77 l7 47 -38 6 c-121 19 -335 70 -443 106 -68 22
-209 81 -312 130 -224 106 -315 145 -485 204 -351 122 -682 191 -1029 215 -82
6 -210 15 -284 20 -144 10 -161 10 -460 0z m-2799 -2503 c18 -14 199 -238 199
-246 0 -7 -716 4 -897 14 -73 4 -131 11 -128 15 7 11 197 91 335 140 201 71
448 110 491 77z"/>
<path d="M5230 5080 c-156 -14 -211 -40 -375 -176 -132 -110 -133 -107 37 -99
177 8 315 29 380 57 61 26 136 84 207 161 l54 57 -75 0 c-42 0 -88 2 -104 4
-16 2 -72 0 -124 -4z"/>
<path d="M520 4046 c0 -37 97 -63 330 -90 220 -25 317 -29 422 -15 54 7 98 16
98 21 0 5 -4 7 -9 4 -5 -3 -92 -6 -194 -7 -160 -1 -194 2 -249 19 -107 34
-317 82 -358 82 -27 0 -40 -4 -40 -14z"/>
<path d="M2270 4035 c-63 -13 -158 -35 -210 -49 -52 -14 -129 -30 -170 -37
-64 -11 -71 -14 -45 -20 94 -21 393 -3 467 30 41 17 118 80 118 96 0 9 -42 4
-160 -20z"/>
<path d="M489 3956 c-1 -14 -2 -32 -3 -38 -4 -46 394 -118 648 -118 l111 0 31
38 32 38 -203 12 c-303 18 -509 48 -597 87 -14 6 -18 2 -19 -19z"/>
<path d="M7020 3933 c-185 -14 -447 -65 -662 -128 -159 -46 -514 -173 -678
-242 -91 -39 -175 -74 -188 -77 -13 -4 -130 -55 -260 -113 -571 -254 -702
-310 -957 -412 -339 -137 -592 -222 -810 -272 -159 -37 -342 -71 -445 -83
-269 -33 -387 -38 -705 -33 -434 7 -739 36 -1027 98 -226 48 -92 -10 232 -100
180 -50 243 -64 417 -95 463 -83 1040 -87 1452 -11 427 79 905 246 1716 600
105 45 332 139 505 208 846 337 1359 454 1825 418 157 -12 254 -33 430 -91
156 -52 215 -63 215 -42 0 36 -198 200 -313 258 -175 90 -482 138 -747 117z"/>
<path d="M470 3817 c0 -55 15 -65 135 -96 152 -37 425 -71 478 -57 26 6 87 52
87 65 0 5 -66 13 -147 20 -207 17 -457 60 -530 91 -21 9 -23 7 -23 -23z"/>
<path d="M470 3673 c0 -16 6 -37 13 -46 27 -36 465 -120 507 -97 25 13 61 60
54 71 -3 5 -26 9 -51 9 -80 0 -371 50 -500 86 -20 6 -23 3 -23 -23z"/>
<path d="M7110 3560 c-94 -8 -322 -42 -410 -61 -240 -53 -781 -230 -1055 -344
-49 -20 -121 -50 -160 -65 -38 -15 -122 -50 -186 -78 -117 -52 -193 -83 -669
-278 -602 -248 -1065 -384 -1485 -440 -504 -66 -1218 -30 -1595 81 -97 28
-117 31 -78 9 90 -49 388 -143 583 -186 293 -63 480 -87 750 -94 239 -7 419 4
665 42 446 69 809 187 1660 542 614 256 778 320 1095 428 350 120 665 205 930
250 181 31 498 43 636 25 97 -13 259 -61 334 -98 38 -20 46 -22 35 -8 -44 53
-273 176 -405 218 -157 49 -436 74 -645 57z"/>
<path d="M490 3531 c0 -53 14 -60 220 -107 144 -33 152 -32 190 16 l32 40 -35
0 c-43 0 -275 44 -342 64 -66 21 -65 21 -65 -13z"/>
<path d="M540 3391 c0 -41 75 -90 163 -106 31 -6 44 -3 77 19 22 14 40 30 40
34 0 4 -51 18 -112 31 -161 34 -168 35 -168 22z"/>
<path d="M4139 1426 c-2 -2 -251 -6 -554 -10 -579 -7 -666 -9 -1100 -26 -311
-12 -550 -29 -579 -40 -18 -7 -16 -9 14 -14 108 -18 730 -45 1540 -66 423 -11
1540 -11 1935 1 975 29 1228 43 1233 70 5 25 -21 28 -278 39 -129 5 -257 12
-285 15 -134 14 -1913 43 -1926 31z"/>
<path d="M6845 1340 c-26 -11 93 -12 155 -1 38 7 32 9 -45 9 -49 0 -99 -3
-110 -8z"/>
</g>
</svg>
